<svg width="18" height="21" viewBox="0 0 18 21" fill="none" xmlns="http://www.w3.org/2000/svg">
<path d="M8.49625 1.39711C8.52542 0.581234 8.98494 0 9.64703 0C10.3091 0 10.7146 0.624118 10.7484 1.4583C10.7779 2.18767 10.8682 7.76122 10.8904 9.1502C10.8933 9.33177 11.0149 9.48515 11.1801 9.5158C11.3724 9.55152 11.5541 9.41114 11.5833 9.20198C11.7732 7.84665 12.4156 3.27737 12.5592 2.48503C12.7282 1.55259 13.1642 1.09559 13.8606 1.20241C14.515 1.30276 14.7652 1.89991 14.6765 2.88515C14.599 3.74641 14.0444 8.77235 13.906 10.0238C13.8875 10.1908 13.9738 10.3505 14.1171 10.4152C14.3062 10.5005 14.5215 10.3919 14.5815 10.1797C14.8473 9.23898 15.5295 6.82691 15.9762 5.26523C16.2653 4.25425 16.6802 3.83155 17.3464 4.03405C18.0127 4.23652 18.1064 4.83508 17.9077 5.93592C17.7091 7.03678 17.0462 10.8799 16.2989 14.204C15.1867 19.1512 13.2438 21 10.1642 21C6.58393 21 5.64484 19.6577 2.30582 15.4198C1.52052 14.4231 1.26631 14.2174 0.546544 13.1247C-0.131802 12.0948 -0.149336 11.403 0.331901 10.8969C1.05193 10.1398 2.00672 10.7987 2.73108 11.4343C3.59841 12.1954 4.42646 12.9103 4.79693 13.2294C4.91888 13.3344 5.08809 13.3444 5.22031 13.2552C5.3389 13.1752 5.40569 13.03 5.3928 12.8792C5.26304 11.3604 4.57259 3.28119 4.50096 2.47163C4.42189 1.57763 4.74127 0.878478 5.47598 0.793927C6.21072 0.709377 6.67304 1.40997 6.77748 2.2099C6.86792 2.90285 7.48849 7.77943 7.65286 9.07143C7.67593 9.25271 7.81848 9.38494 7.98729 9.38494C8.17097 9.38494 8.32094 9.22915 8.32512 9.03011C8.35564 7.57442 8.47104 2.10349 8.49625 1.39711Z" fill="#E5F926"/>
</svg>
